<svg width="320" height="320" viewBox="0 0 320 320" fill="none" xmlns="http://www.w3.org/2000/svg">
<path d="M0 25C0 11.1929 11.1929 0 25 0H295C308.807 0 320 11.1929 320 25V295C320 308.807 308.807 320 295 320H25C11.1929 320 0 308.807 0 295V25Z" fill="#292929"/>
<path d="M0 0H320H0ZM320 295C320 309.359 308.359 321 294 321H26C11.6406 321 0 309.359 0 295C0 308.255 11.1929 319 25 319H295C308.807 319 320 308.255 320 295ZM0 320V0V320ZM320 0V320V0Z" fill="white"/>
<path d="M72.3683 129.2C63.6483 129.2 55.9283 128.8 49.2083 128C42.4883 127.2 37.6483 126.4 34.6883 125.6V122L32.2883 106.76C33.8083 108.04 36.3283 109.4 39.8483 110.84C43.3683 112.28 47.8883 113.52 53.4083 114.56C58.9283 115.52 65.3283 116 72.6083 116C77.0883 116 80.5283 115.72 82.9283 115.16C85.3283 114.52 86.9683 113.64 87.8483 112.52C88.7283 111.4 89.1683 110.08 89.1683 108.56C89.1683 106.64 88.5283 105.16 87.2483 104.12C85.9683 103 83.6483 102.08 80.2883 101.36C77.0083 100.64 72.3283 99.88 66.2483 99.08C58.9683 98.12 52.8883 96.8 48.0083 95.12C43.1283 93.44 39.4883 91.08 37.0883 88.04C34.6883 84.92 33.4883 80.8 33.4883 75.68C33.4883 71.52 34.5683 67.88 36.7283 64.76C38.8883 61.64 42.3683 59.2 47.1683 57.44C51.9683 55.68 58.3283 54.8 66.2483 54.8C74.5683 54.8 81.6883 55.2 87.6083 56C93.5283 56.8 97.6083 57.6 99.8483 58.4V62L103.448 75.2C101.448 74.16 98.5683 73.08 94.8083 71.96C91.0483 70.84 86.6883 69.92 81.7283 69.2C76.7683 68.4 71.4083 68 65.6483 68C62.0483 68 59.2483 68.32 57.2483 68.96C55.2483 69.52 53.8083 70.36 52.9283 71.48C52.1283 72.52 51.7283 73.84 51.7283 75.44C51.7283 77.36 52.4483 78.92 53.8883 80.12C55.4083 81.24 57.8483 82.16 61.2083 82.88C64.5683 83.6 69.0883 84.28 74.7683 84.92C83.4883 85.88 90.2083 87.32 94.9283 89.24C99.6483 91.16 102.888 93.64 104.648 96.68C106.488 99.64 107.408 103.24 107.408 107.48C107.408 111.16 106.728 114.4 105.368 117.2C104.008 119.92 101.888 122.16 99.0083 123.92C96.2083 125.68 92.5683 127 88.0883 127.88C83.6883 128.76 78.4483 129.2 72.3683 129.2ZM157.095 129.2C148.375 129.2 140.655 128.8 133.935 128C127.215 127.2 122.375 126.4 119.415 125.6V122L117.015 106.76C118.535 108.04 121.055 109.4 124.575 110.84C128.095 112.28 132.615 113.52 138.135 114.56C143.655 115.52 150.055 116 157.335 116C161.815 116 165.255 115.72 167.655 115.16C170.055 114.52 171.695 113.64 172.575 112.52C173.455 111.4 173.895 110.08 173.895 108.56C173.895 106.64 173.255 105.16 171.975 104.12C170.695 103 168.375 102.08 165.015 101.36C161.735 100.64 157.055 99.88 150.975 99.08C143.695 98.12 137.615 96.8 132.735 95.12C127.855 93.44 124.215 91.08 121.815 88.04C119.415 84.92 118.215 80.8 118.215 75.68C118.215 71.52 119.295 67.88 121.455 64.76C123.615 61.64 127.095 59.2 131.895 57.44C136.695 55.68 143.055 54.8 150.975 54.8C159.295 54.8 166.415 55.2 172.335 56C178.255 56.8 182.335 57.6 184.575 58.4V62L188.175 75.2C186.175 74.16 183.295 73.08 179.535 71.96C175.775 70.84 171.415 69.92 166.455 69.2C161.495 68.4 156.135 68 150.375 68C146.775 68 143.975 68.32 141.975 68.96C139.975 69.52 138.535 70.36 137.655 71.48C136.855 72.52 136.455 73.84 136.455 75.44C136.455 77.36 137.175 78.92 138.615 80.12C140.135 81.24 142.575 82.16 145.935 82.88C149.295 83.6 153.815 84.28 159.495 84.92C168.215 85.88 174.935 87.32 179.655 89.24C184.375 91.16 187.615 93.64 189.375 96.68C191.215 99.64 192.135 103.24 192.135 107.48C192.135 111.16 191.455 114.4 190.095 117.2C188.735 119.92 186.615 122.16 183.735 123.92C180.935 125.68 177.295 127 172.815 127.88C168.415 128.76 163.175 129.2 157.095 129.2ZM202.941 128C203.501 128 204.061 127.44 204.621 126.32C205.181 125.2 205.461 123.36 205.461 120.8V63.2C205.461 60.64 205.181 58.84 204.621 57.8C204.061 56.68 203.501 56.08 202.941 56H226.461C225.901 56 225.341 56.56 224.781 57.68C224.221 58.8 223.941 60.68 223.941 63.32V81.68C223.941 83.44 224.141 84.48 224.541 84.8C225.021 85.12 226.461 85.28 228.861 85.28H259.701C262.101 85.28 263.501 85.16 263.901 84.92C264.301 84.6 264.501 83.52 264.501 81.68V63.2C264.501 60.64 264.221 58.84 263.661 57.8C263.101 56.68 262.541 56.08 261.981 56H285.501C284.941 56 284.381 56.56 283.821 57.68C283.261 58.8 282.981 60.68 282.981 63.32V120.8C282.981 123.36 283.261 125.2 283.821 126.32C284.381 127.44 284.941 128 285.501 128H261.981C262.541 128 263.101 127.44 263.661 126.32C264.221 125.2 264.501 123.36 264.501 120.8V102.08C264.501 100.24 264.261 99.2 263.781 98.96C263.381 98.64 262.021 98.48 259.701 98.48H228.861C226.461 98.48 225.021 98.64 224.541 98.96C224.141 99.28 223.941 100.32 223.941 102.08V120.8C223.941 123.36 224.221 125.2 224.781 126.32C225.341 127.44 225.901 128 226.461 128H202.941Z" fill="url(#paint0_linear_1_20)"/>
<path d="M50.4261 247.96C43.9621 247.96 38.6501 246.936 34.4901 244.888C30.3301 242.84 27.2581 239.896 25.2741 236.056C23.2901 232.152 22.2981 227.512 22.2981 222.136V195.064C22.2981 193.016 22.0741 191.576 21.6261 190.744C21.2421 189.848 20.8261 189.4 20.3781 189.4H38.8101C38.3621 189.464 37.9141 189.912 37.4661 190.744C37.0821 191.576 36.8901 193.016 36.8901 195.064V221.944C36.8901 226.04 37.4661 229.208 38.6181 231.448C39.7701 233.688 41.3701 235.224 43.4181 236.056C45.4661 236.888 47.8341 237.304 50.5221 237.304H51.5781C53.6901 237.304 55.5461 237.08 57.1461 236.632C58.8101 236.184 60.1861 235.416 61.2741 234.328C62.4261 233.24 63.2901 231.704 63.8661 229.72C64.5061 227.672 64.8261 225.08 64.8261 221.944V195.064C64.8261 193.016 64.6021 191.576 64.1541 190.744C63.7701 189.848 63.3541 189.4 62.9061 189.4H81.3381C80.8901 189.464 80.4421 189.944 79.9941 190.84C79.6101 191.672 79.4181 193.112 79.4181 195.16V222.136C79.4181 227.512 78.3941 232.152 76.3461 236.056C74.3621 239.896 71.2901 242.84 67.1301 244.888C63.0341 246.936 57.7861 247.96 51.3861 247.96H50.4261ZM152.191 247C152.639 247 153.055 246.584 153.439 245.752C153.887 244.856 154.111 243.352 154.111 241.24V195.16C154.111 193.112 153.887 191.64 153.439 190.744C153.055 189.848 152.639 189.4 152.191 189.4H170.719C170.271 189.4 169.823 189.848 169.375 190.744C168.927 191.576 168.703 193.08 168.703 195.256V241.24C168.703 243.288 168.927 244.76 169.375 245.656C169.823 246.552 170.271 247 170.719 247H152.191ZM272.545 247.96C265.569 247.96 259.393 247.64 254.017 247C248.641 246.36 244.769 245.72 242.401 245.08V242.2L240.481 230.008C241.697 231.032 243.713 232.12 246.529 233.272C249.345 234.424 252.961 235.416 257.377 236.248C261.793 237.016 266.913 237.4 272.737 237.4C276.321 237.4 279.073 237.176 280.993 236.728C282.913 236.216 284.225 235.512 284.929 234.616C285.633 233.72 285.985 232.664 285.985 231.448C285.985 229.912 285.473 228.728 284.449 227.896C283.425 227 281.569 226.264 278.881 225.688C276.257 225.112 272.513 224.504 267.649 223.864C261.825 223.096 256.961 222.04 253.057 220.696C249.153 219.352 246.241 217.464 244.321 215.032C242.401 212.536 241.441 209.24 241.441 205.144C241.441 201.816 242.305 198.904 244.033 196.408C245.761 193.912 248.545 191.96 252.385 190.552C256.225 189.144 261.313 188.44 267.649 188.44C274.305 188.44 280.001 188.76 284.737 189.4C289.473 190.04 292.737 190.68 294.529 191.32V194.2L297.409 204.76C295.809 203.928 293.505 203.064 290.497 202.168C287.489 201.272 284.001 200.536 280.033 199.96C276.065 199.32 271.777 199 267.169 199C264.289 199 262.049 199.256 260.449 199.768C258.849 200.216 257.697 200.888 256.993 201.784C256.353 202.616 256.033 203.672 256.033 204.952C256.033 206.488 256.609 207.736 257.761 208.696C258.977 209.592 260.929 210.328 263.617 210.904C266.305 211.48 269.921 212.024 274.465 212.536C281.441 213.304 286.817 214.456 290.593 215.992C294.369 217.528 296.961 219.512 298.369 221.944C299.841 224.312 300.577 227.192 300.577 230.584C300.577 233.528 300.033 236.12 298.945 238.36C297.857 240.536 296.161 242.328 293.857 243.736C291.617 245.144 288.705 246.2 285.121 246.904C281.601 247.608 277.409 247.96 272.545 247.96Z" fill="white"/>
<path d="M109.404 247C109.852 247 110.3 246.552 110.748 245.656C111.196 244.76 111.42 243.288 111.42 241.24V199.96C111.42 198.552 111.26 197.72 110.94 197.464C110.62 197.208 109.5 197.08 107.58 197.08H100.572C96.8599 197.08 93.8519 197.496 91.5479 198.328C89.3079 199.096 87.8359 199.832 87.1319 200.536L89.0519 191.32V189.4H144.54V191.32L146.46 200.536C145.756 199.832 144.252 199.096 141.948 198.328C139.708 197.496 136.732 197.08 133.02 197.08H126.108C124.124 197.08 122.972 197.208 122.652 197.464C122.332 197.72 122.172 198.552 122.172 199.96V241.24C122.172 243.288 122.396 244.76 122.844 245.656C123.292 246.552 123.74 247 124.188 247H109.404ZM181.276 247C181.724 247 182.172 246.552 182.62 245.656C183.068 244.76 183.292 243.288 183.292 241.24V195.16C183.292 193.112 183.068 191.672 182.62 190.84C182.172 189.944 181.724 189.464 181.276 189.4H196.06C195.612 189.4 195.164 189.848 194.716 190.744C194.268 191.64 194.044 193.144 194.044 195.256V236.248C194.044 237.656 194.204 238.52 194.524 238.84C194.908 239.096 196.06 239.224 197.98 239.224H222.268C225.98 239.224 228.956 238.808 231.196 237.976C233.5 237.08 235.004 236.216 235.708 235.384L233.788 244.984V247H181.276Z" fill="#8B5CF6"/>
<path d="M121.968 194L121.968 216.156L121.6 247.155L134.623 234.225C135.398 233.456 136.647 233.45 137.429 234.213L142.545 239.203C143.345 239.983 143.351 241.267 142.558 242.054L118.114 266.323C116.944 267.484 115.056 267.484 113.886 266.323L89.4423 242.054C88.6495 241.267 88.6552 239.983 89.4549 239.203L94.5711 234.213C95.3528 233.45 96.6017 233.456 97.3767 234.225L110.4 247.155L110.4 194L121.968 194Z" fill="#8B5CF6"/>
<path d="M183.032 191.421L183.032 202.265L183.4 171.266L170.377 184.196C169.602 184.966 168.353 184.971 167.571 184.209L162.455 179.218C161.655 178.438 161.65 177.154 162.442 176.367L186.886 152.099C188.056 150.937 189.944 150.937 191.114 152.099L215.558 176.367C216.351 177.154 216.345 178.438 215.545 179.218L210.429 184.209C209.647 184.971 208.398 184.966 207.623 184.196L194.6 171.266L194.6 191.421L183.032 191.421Z" fill="#8B5CF6"/>
<defs>
<linearGradient id="paint0_linear_1_20" x1="22" y1="128" x2="277" y2="67" gradientUnits="userSpaceOnUse">
<stop stop-color="white"/>
<stop offset="1" stop-color="#8B5CF6"/>
</linearGradient>
</defs>
</svg>
